<!-- Generated by readme-aura https://github.com/collectioneur/readme-aura -->
<svg width="860" height="70" viewBox="0 0 860 70" xmlns="http://www.w3.org/2000/svg"><defs><clipPath id="satori_bc-id"><rect x="0" y="0" width="860" height="70"/></clipPath></defs><mask id="satori_om-id"><rect x="0" y="0" width="860" height="69" fill="#fff"/><path width="860" height="70" fill="none" stroke="#000" stroke-width="2" d="M860,70 A0,0 0 0 1 860,70 h-860 A0,0 0 0 1 0,70"/></mask><rect x="0" y="0" width="860" height="70" fill="#08050F"/><path width="860" height="70" clip-path="url(#satori_bc-id)" fill="none" stroke="rgba(168,85,247,0.20)" stroke-width="2" d="M860,70 A0,0 0 0 1 860,70 h-860 A0,0 0 0 1 0,70"/><mask id="satori_om-id-0"><rect x="40" y="21" width="126" height="27" fill="#fff"/></mask><g  ><path fill="#FFFFFF" d="M45.7 28.7L40.8 28.7L40.8 26.0L53.9 26.0L53.9 28.7L49.0 28.7L49.0 42L45.7 42L45.7 28.7ZM62.0 42.2L62.0 42.2Q60.1 42.2 58.8 41.5Q57.5 40.7 56.8 39.3Q56.1 38.0 56.1 36.1L56.1 36.1Q56.1 34.2 56.8 32.8Q57.5 31.4 58.8 30.6Q60.1 29.8 61.8 29.8L61.8 29.8Q63.0 29.8 64.0 30.2Q65.0 30.6 65.8 31.3Q66.6 32.1 67.0 33.2Q67.5 34.4 67.5 35.9L67.5 35.9L67.5 36.8L59.2 36.8Q59.3 37.7 59.6 38.4L59.6 38.4Q59.9 39.1 60.6 39.5Q61.2 39.8 62.0 39.8L62.0 39.8Q62.6 39.8 63.1 39.6Q63.5 39.5 63.9 39.2Q64.2 38.9 64.4 38.4L64.4 38.4L67.3 38.9Q67.0 39.9 66.3 40.7Q65.6 41.4 64.5 41.8Q63.4 42.2 62.0 42.2ZM59.3 34.8L59.3 34.8L64.4 34.8Q64.3 34.2 64.1 33.7L64.1 33.7Q63.8 33.0 63.2 32.6Q62.7 32.3 61.9 32.3L61.9 32.3Q61.0 32.3 60.4 32.7Q59.8 33.0 59.5 33.7L59.5 33.7Q59.3 34.2 59.3 34.8ZM75.5 42.2L75.5 42.2Q73.7 42.2 72.4 41.5Q71.1 40.7 70.4 39.3Q69.7 37.9 69.7 36.0L69.7 36.0Q69.7 34.2 70.4 32.8Q71.1 31.4 72.4 30.6Q73.7 29.8 75.5 29.8L75.5 29.8Q76.6 29.8 77.5 30.1Q78.4 30.4 79.1 30.9Q79.8 31.4 80.3 32.2Q80.7 32.9 80.9 33.8L80.9 33.8L77.9 34.4Q77.8 33.9 77.6 33.6Q77.4 33.2 77.1 32.9Q76.8 32.7 76.4 32.5Q76.0 32.4 75.6 32.4L75.6 32.4Q74.7 32.4 74.1 32.8Q73.5 33.3 73.2 34.1Q72.9 35.0 72.9 36.0L72.9 36.0Q72.9 37.1 73.2 37.9Q73.5 38.8 74.1 39.2Q74.7 39.7 75.6 39.7L75.6 39.7Q76.0 39.7 76.4 39.6Q76.8 39.4 77.1 39.1Q77.4 38.9 77.6 38.5Q77.8 38.1 77.9 37.6L77.9 37.6L80.9 38.2Q80.7 39.1 80.3 39.9Q79.8 40.6 79.1 41.1Q78.4 41.7 77.5 42.0Q76.6 42.2 75.5 42.2ZM86.8 35.0L86.8 35.0L86.8 42L83.6 42L83.6 26.0L86.8 26.0L86.8 32.3Q87.2 31.3 87.9 30.7L87.9 30.7Q88.9 29.8 90.4 29.8L90.4 29.8Q91.7 29.8 92.6 30.4Q93.5 30.9 94.1 31.9Q94.6 33.0 94.6 34.4L94.6 34.4L94.6 42L91.3 42L91.3 34.9Q91.3 33.8 90.8 33.2Q90.2 32.5 89.2 32.5L89.2 32.5Q88.5 32.5 88.0 32.8Q87.4 33.1 87.1 33.7Q86.8 34.2 86.8 35.0Z M109.5 42.2L109.5 42.2Q107.5 42.2 106.1 41.6Q104.7 41.1 103.9 39.9Q103.1 38.7 103.1 37.0L103.1 37.0L106.2 37.0Q106.3 37.8 106.7 38.4Q107.1 38.9 107.8 39.2Q108.5 39.5 109.4 39.5L109.4 39.5Q110.3 39.5 111.0 39.2Q111.6 39.0 112.0 38.5Q112.3 38.0 112.3 37.4L112.3 37.4Q112.3 36.9 112.0 36.5Q111.7 36.1 111.1 35.9Q110.5 35.6 109.6 35.4L109.6 35.4L107.8 35.0Q105.8 34.5 104.6 33.4Q103.5 32.3 103.5 30.6L103.5 30.6Q103.5 29.2 104.3 28.1Q105.0 27.0 106.4 26.4Q107.8 25.8 109.5 25.8L109.5 25.8Q111.3 25.8 112.6 26.4Q113.9 27.0 114.7 28.1Q115.4 29.2 115.4 30.6L115.4 30.6L112.2 30.6Q112.2 29.6 111.4 29.1Q110.7 28.5 109.5 28.5L109.5 28.5Q108.6 28.5 108.0 28.8Q107.5 29.0 107.2 29.4Q106.8 29.9 106.8 30.4L106.8 30.4Q106.8 31.0 107.2 31.4Q107.6 31.8 108.1 32.0Q108.7 32.2 109.4 32.4L109.4 32.4L110.9 32.8Q111.9 33.0 112.7 33.4Q113.6 33.8 114.3 34.3Q114.9 34.9 115.3 35.7Q115.6 36.4 115.6 37.4L115.6 37.4Q115.6 38.9 114.9 40.0Q114.2 41.1 112.8 41.6Q111.4 42.2 109.5 42.2ZM122.1 30.0L124.4 30.0L124.4 32.5L122.1 32.5L122.1 38.5Q122.1 39.1 122.4 39.3Q122.6 39.6 123.2 39.6L123.2 39.6Q123.4 39.6 123.7 39.6Q124.1 39.5 124.3 39.5L124.3 39.5L124.7 41.9Q124.2 42.0 123.6 42.1Q123.1 42.2 122.6 42.2L122.6 42.2Q120.8 42.2 119.9 41.3Q118.9 40.4 118.9 38.8L118.9 38.8L118.9 32.5L117.3 32.5L117.3 30.0L118.9 30.0L118.9 27.1L122.1 27.1L122.1 30.0ZM130.3 42.2L130.3 42.2Q129.2 42.2 128.3 41.8Q127.4 41.4 126.9 40.6Q126.3 39.8 126.3 38.6L126.3 38.6Q126.3 37.6 126.7 37.0Q127.1 36.3 127.7 35.9Q128.4 35.5 129.2 35.3Q130.0 35.0 130.9 35.0L130.9 35.0Q131.9 34.8 132.5 34.8Q133.2 34.7 133.5 34.5Q133.8 34.3 133.8 33.9L133.8 33.9L133.8 33.8Q133.8 33.3 133.6 33.0Q133.3 32.6 132.9 32.4Q132.5 32.2 131.9 32.2L131.9 32.2Q131.3 32.2 130.8 32.4Q130.4 32.6 130.1 32.9Q129.8 33.2 129.6 33.6L129.6 33.6L126.7 33.1Q127.0 32.1 127.7 31.3Q128.4 30.6 129.5 30.2Q130.6 29.8 131.9 29.8L131.9 29.8Q132.9 29.8 133.8 30.1Q134.7 30.3 135.4 30.8Q136.2 31.3 136.6 32.0Q137 32.8 137 33.9L137 33.9L137 42L133.9 42L133.9 40.3L133.8 40.3Q133.6 40.9 133.1 41.3Q132.6 41.7 131.9 42.0Q131.2 42.2 130.3 42.2ZM131.2 40.0L131.2 40.0Q132.0 40.0 132.6 39.7Q133.2 39.4 133.5 38.9Q133.8 38.3 133.8 37.7L133.8 37.7L133.8 36.4Q133.7 36.5 133.4 36.6Q133.1 36.7 132.7 36.7Q132.4 36.8 132.0 36.9Q131.7 36.9 131.4 37.0L131.4 37.0Q130.8 37.0 130.4 37.2Q129.9 37.4 129.7 37.7Q129.4 38.1 129.4 38.6L129.4 38.6Q129.4 39.0 129.7 39.3Q129.9 39.6 130.3 39.8Q130.7 40.0 131.2 40.0ZM145.6 42.2L145.6 42.2Q143.8 42.2 142.5 41.5Q141.2 40.7 140.5 39.3Q139.7 37.9 139.7 36.0L139.7 36.0Q139.7 34.2 140.5 32.8Q141.2 31.4 142.5 30.6Q143.8 29.8 145.6 29.8L145.6 29.8Q146.7 29.8 147.6 30.1Q148.5 30.4 149.2 30.9Q149.9 31.4 150.3 32.2Q150.8 32.9 151.0 33.8L151.0 33.8L148.0 34.4Q147.9 33.9 147.7 33.6Q147.5 33.2 147.2 32.9Q146.9 32.7 146.5 32.5Q146.1 32.4 145.7 32.4L145.7 32.4Q144.8 32.4 144.2 32.8Q143.6 33.3 143.3 34.1Q143.0 35.0 143.0 36.0L143.0 36.0Q143.0 37.1 143.3 37.9Q143.6 38.8 144.2 39.2Q144.8 39.7 145.7 39.7L145.7 39.7Q146.1 39.7 146.5 39.6Q146.9 39.4 147.2 39.1Q147.5 38.9 147.7 38.5Q147.9 38.1 148.0 37.6L148.0 37.6L151.0 38.2Q150.8 39.1 150.4 39.9Q149.9 40.6 149.2 41.1Q148.5 41.7 147.6 42.0Q146.7 42.2 145.6 42.2ZM156.9 42L153.7 42L153.7 26.0L156.9 26.0L156.9 34.6L157.1 34.6L161.0 30.0L164.8 30.0L160.3 35.2L165.0 42L161.2 42L157.8 37.1L156.9 38.1L156.9 42Z "/></g><mask id="satori_om-id-1"><rect x="178" y="26" width="149" height="17" fill="#fff"/></mask><g  ><path fill="#A855F7" d="M181.6 29.3L182.7 29.3L179.4 41.5L178.3 41.5L181.6 29.3ZM186.6 29.3L187.8 29.3L184.5 41.5L183.4 41.5L186.6 29.3Z M194.5 32.4L196.1 32.4L196.1 33.4L194.5 33.4L194.5 38.0Q194.5 38.5 194.8 38.8Q195.0 39.0 195.4 39.0L195.4 39.0Q195.6 39.0 195.7 39.0Q195.9 38.9 196.1 38.9L196.1 38.9L196.3 40.0Q196.1 40.0 195.9 40.1Q195.7 40.1 195.4 40.1L195.4 40.1Q194.4 40.1 193.9 39.6Q193.3 39.0 193.3 38.1L193.3 38.1L193.3 33.4L192.2 33.4L192.2 32.4L193.3 32.4L193.3 30.5L194.5 30.5L194.5 32.4ZM200.8 40.2L200.8 40.2Q199.8 40.2 199.0 39.7Q198.2 39.2 197.8 38.3Q197.3 37.4 197.3 36.2L197.3 36.2Q197.3 35.0 197.8 34.1Q198.2 33.2 199.0 32.8Q199.8 32.3 200.8 32.3L200.8 32.3Q201.8 32.3 202.6 32.8Q203.4 33.2 203.9 34.1Q204.3 35.0 204.3 36.2L204.3 36.2Q204.3 37.4 203.9 38.3Q203.4 39.2 202.6 39.7Q201.8 40.2 200.8 40.2ZM200.8 39.1L200.8 39.1Q201.6 39.1 202.1 38.7Q202.6 38.3 202.8 37.6Q203.0 37.0 203.0 36.2L203.0 36.2Q203.0 35.5 202.8 34.8Q202.6 34.2 202.1 33.8Q201.6 33.4 200.8 33.4L200.8 33.4Q200.0 33.4 199.5 33.8Q199.0 34.2 198.8 34.8Q198.6 35.5 198.6 36.2L198.6 36.2Q198.6 37.0 198.8 37.6Q199.0 38.3 199.5 38.7Q200.0 39.1 200.8 39.1ZM209.2 40.2L209.2 40.2Q208.2 40.2 207.4 39.7Q206.6 39.2 206.2 38.3Q205.7 37.4 205.7 36.2L205.7 36.2Q205.7 35.0 206.2 34.1Q206.6 33.2 207.4 32.8Q208.2 32.3 209.2 32.3L209.2 32.3Q210.2 32.3 211.0 32.8Q211.8 33.2 212.2 34.1Q212.7 35.0 212.7 36.2L212.7 36.2Q212.7 37.4 212.2 38.3Q211.8 39.2 211.0 39.7Q210.2 40.2 209.2 40.2ZM209.2 39.1L209.2 39.1Q210.0 39.1 210.5 38.7Q211.0 38.3 211.2 37.6Q211.4 37.0 211.4 36.2L211.4 36.2Q211.4 35.5 211.2 34.8Q211.0 34.2 210.5 33.8Q210.0 33.4 209.2 33.4L209.2 33.4Q208.4 33.4 207.9 33.8Q207.4 34.2 207.2 34.8Q207.0 35.5 207.0 36.2L207.0 36.2Q207.0 37.0 207.2 37.6Q207.4 38.3 207.9 38.7Q208.4 39.1 209.2 39.1ZM214.5 29.8L215.7 29.8L215.7 40L214.5 40L214.5 29.8ZM220.5 40.2L220.5 40.2Q219.7 40.2 219.1 39.9Q218.5 39.7 218.1 39.3Q217.7 38.8 217.5 38.1L217.5 38.1L218.7 37.9Q218.9 38.5 219.3 38.8Q219.8 39.1 220.5 39.1L220.5 39.1Q221.3 39.1 221.7 38.7Q222.2 38.4 222.2 37.9L222.2 37.9Q222.2 37.5 221.9 37.3Q221.6 37.0 221.1 36.9L221.1 36.9L219.8 36.6Q218.8 36.3 218.3 35.8Q217.8 35.3 217.8 34.5L217.8 34.5Q217.8 33.8 218.1 33.3Q218.5 32.8 219.1 32.5Q219.8 32.3 220.6 32.3L220.6 32.3Q221.4 32.3 221.9 32.5Q222.5 32.7 222.8 33.1Q223.2 33.6 223.3 34.1L223.3 34.1L222.2 34.4Q222.1 34.0 221.7 33.6Q221.3 33.3 220.6 33.3L220.6 33.3Q219.9 33.3 219.5 33.6Q219.0 33.9 219.0 34.4L219.0 34.4Q219.0 34.8 219.3 35.1Q219.6 35.4 220.3 35.5L220.3 35.5L221.4 35.8Q222.5 36.0 223.0 36.5Q223.5 37.1 223.5 37.8L223.5 37.8Q223.5 38.5 223.1 39.0Q222.7 39.6 222.0 39.9Q221.4 40.2 220.5 40.2Z M232.1 40.1L232.1 40.1Q231.1 40.1 230.3 39.8Q229.6 39.4 229.2 38.8Q228.8 38.1 228.8 37.3L228.8 37.3Q228.8 36.7 229.1 36.2Q229.4 35.7 229.9 35.3L229.9 35.3Q230.3 34.9 230.8 34.5L230.8 34.5Q230.7 34.3 230.6 34.2L230.6 34.2Q230.2 33.7 229.9 33.1Q229.7 32.6 229.7 32.0L229.7 32.0Q229.7 31.3 230.0 30.8Q230.3 30.3 230.8 30.0Q231.4 29.7 232.1 29.7L232.1 29.7Q232.9 29.7 233.5 30.0Q234.0 30.3 234.3 30.8Q234.6 31.3 234.6 31.9L234.6 31.9Q234.6 32.4 234.4 32.8Q234.3 33.2 234.0 33.5Q233.7 33.8 233.3 34.1L233.3 34.1L232.5 34.7L234.7 37.3Q234.8 37.2 234.9 37.0L234.9 37.0Q235.1 36.3 235.1 35.5L235.1 35.5L236.3 35.5Q236.3 36.5 236.1 37.2Q235.8 37.8 235.6 38.2L235.6 38.2Q235.5 38.2 235.5 38.3L235.5 38.3L236.9 40L235.4 40L234.7 39.2Q234.2 39.6 233.6 39.9L233.6 39.9Q232.8 40.1 232.1 40.1ZM234.0 38.3L231.6 35.4L231.2 35.6Q230.6 36.1 230.3 36.5Q230.1 36.9 230.1 37.4L230.1 37.4Q230.1 37.9 230.3 38.3Q230.6 38.6 231.0 38.9Q231.4 39.1 232.0 39.1L232.0 39.1Q232.6 39.1 233.2 38.8L233.2 38.8Q233.6 38.6 234.0 38.3L234.0 38.3ZM231.8 33.8L231.8 33.8L232.5 33.3Q232.6 33.2 232.9 33.0Q233.1 32.8 233.2 32.5Q233.4 32.2 233.4 31.9L233.4 31.9Q233.4 31.4 233.1 31.1Q232.7 30.8 232.2 30.8L232.2 30.8Q231.8 30.8 231.5 30.9Q231.2 31.1 231.1 31.4Q230.9 31.6 230.9 32.0L230.9 32.0Q230.9 32.4 231.1 32.7Q231.2 33.1 231.5 33.5L231.5 33.5Q231.7 33.6 231.8 33.8Z M243.6 32.4L245.2 32.4L245.2 33.4L243.6 33.4L243.6 38.0Q243.6 38.5 243.8 38.8Q244.0 39.0 244.5 39.0L244.5 39.0Q244.6 39.0 244.8 39.0Q245.0 38.9 245.1 38.9L245.1 38.9L245.4 40.0Q245.2 40.0 244.9 40.1Q244.7 40.1 244.5 40.1L244.5 40.1Q243.5 40.1 242.9 39.6Q242.4 39.0 242.4 38.1L242.4 38.1L242.4 33.4L241.2 33.4L241.2 32.4L242.4 32.4L242.4 30.5L243.6 30.5L243.6 32.4ZM249.9 40.2L249.9 40.2Q248.8 40.2 248.0 39.7Q247.2 39.2 246.8 38.3Q246.4 37.4 246.4 36.2Q246.4 35.1 246.8 34.2Q247.2 33.3 248.0 32.8Q248.8 32.3 249.8 32.3L249.8 32.3Q250.4 32.3 251.0 32.5Q251.6 32.7 252.1 33.1Q252.6 33.6 252.8 34.3Q253.1 35.0 253.1 36.1L253.1 36.1L253.1 36.6L247.6 36.6Q247.6 37.3 247.9 37.9L247.9 37.9Q248.2 38.5 248.7 38.8Q249.3 39.1 249.9 39.1L249.9 39.1Q250.4 39.1 250.8 38.9Q251.1 38.8 251.4 38.5Q251.7 38.3 251.8 37.9L251.8 37.9L253.0 38.2Q252.8 38.8 252.4 39.2Q252.0 39.7 251.4 39.9Q250.7 40.2 249.9 40.2ZM247.6 35.6L247.6 35.6L251.9 35.6Q251.8 35.0 251.7 34.6L251.7 34.6Q251.4 34.0 251.0 33.7Q250.5 33.4 249.8 33.4Q249.1 33.4 248.6 33.7Q248.1 34.0 247.9 34.6L247.9 34.6Q247.6 35.0 247.6 35.6ZM258.0 40.2L258.0 40.2Q257.0 40.2 256.2 39.7Q255.4 39.2 255.0 38.3Q254.5 37.4 254.5 36.2L254.5 36.2Q254.5 35.0 255.0 34.1Q255.4 33.2 256.2 32.8Q257.0 32.3 258.0 32.3L258.0 32.3Q258.6 32.3 259.0 32.4Q259.5 32.5 259.9 32.8Q260.4 33.1 260.6 33.5Q260.9 33.9 261.1 34.4L261.1 34.4L259.9 34.7Q259.8 34.4 259.7 34.2Q259.5 33.9 259.2 33.7Q259.0 33.6 258.7 33.5Q258.4 33.4 258.0 33.4L258.0 33.4Q257.2 33.4 256.7 33.8Q256.3 34.2 256.0 34.8Q255.8 35.5 255.8 36.2L255.8 36.2Q255.8 37.0 256.0 37.6Q256.3 38.3 256.7 38.7Q257.2 39.1 258.0 39.1L258.0 39.1Q258.4 39.1 258.7 39.0Q259.0 38.9 259.3 38.7Q259.5 38.5 259.7 38.2Q259.9 38.0 259.9 37.7L259.9 37.7L261.1 38.0Q261.0 38.5 260.7 38.9Q260.4 39.3 260.0 39.6Q259.6 39.9 259.1 40.0Q258.6 40.2 258.0 40.2ZM264.1 35.4L264.1 35.4L264.1 40L262.9 40L262.9 29.8L264.1 29.8L264.1 33.7Q264.4 33.0 264.9 32.7L264.9 32.7Q265.5 32.3 266.4 32.3L266.4 32.3Q267.2 32.3 267.8 32.6Q268.4 32.9 268.7 33.5Q269.0 34.2 269.0 35.1L269.0 35.1L269.0 40L267.8 40L267.8 35.2Q267.8 34.4 267.3 33.9Q266.8 33.4 266.0 33.4L266.0 33.4Q265.5 33.4 265.1 33.6Q264.6 33.8 264.4 34.3Q264.1 34.8 264.1 35.4ZM272.4 35.4L272.4 35.4L272.4 40L271.2 40L271.2 32.4L272.3 32.4L272.4 33.8Q272.7 33.1 273.2 32.7L273.2 32.7Q273.8 32.3 274.7 32.3L274.7 32.3Q275.5 32.3 276.0 32.6Q276.6 32.9 277.0 33.5Q277.3 34.2 277.3 35.1L277.3 35.1L277.3 40L276.0 40L276.0 35.2Q276.0 34.4 275.6 33.9Q275.1 33.4 274.3 33.4L274.3 33.4Q273.8 33.4 273.3 33.6Q272.9 33.8 272.7 34.3Q272.4 34.8 272.4 35.4ZM282.5 40.2L282.5 40.2Q281.5 40.2 280.7 39.7Q279.9 39.2 279.5 38.3Q279.1 37.4 279.1 36.2L279.1 36.2Q279.1 35.0 279.5 34.1Q279.9 33.2 280.7 32.8Q281.5 32.3 282.5 32.3L282.5 32.3Q283.6 32.3 284.4 32.8Q285.2 33.2 285.6 34.1Q286.0 35.0 286.0 36.2L286.0 36.2Q286.0 37.4 285.6 38.3Q285.2 39.2 284.4 39.7Q283.6 40.2 282.5 40.2ZM282.5 39.1L282.5 39.1Q283.3 39.1 283.8 38.7Q284.3 38.3 284.6 37.6Q284.8 37.0 284.8 36.2L284.8 36.2Q284.8 35.5 284.6 34.8Q284.3 34.2 283.8 33.8Q283.3 33.4 282.5 33.4L282.5 33.4Q281.8 33.4 281.3 33.8Q280.8 34.2 280.6 34.8Q280.3 35.5 280.3 36.2L280.3 36.2Q280.3 37.0 280.6 37.6Q280.8 38.3 281.3 38.7Q281.8 39.1 282.5 39.1ZM287.8 29.8L289.1 29.8L289.1 40L287.8 40L287.8 29.8ZM294.3 40.2L294.3 40.2Q293.3 40.2 292.5 39.7Q291.7 39.2 291.3 38.3Q290.9 37.4 290.9 36.2L290.9 36.2Q290.9 35.0 291.3 34.1Q291.7 33.2 292.5 32.8Q293.3 32.3 294.3 32.3L294.3 32.3Q295.4 32.3 296.2 32.8Q297.0 33.2 297.4 34.1Q297.8 35.0 297.8 36.2L297.8 36.2Q297.8 37.4 297.4 38.3Q297.0 39.2 296.2 39.7Q295.4 40.2 294.3 40.2ZM294.3 39.1L294.3 39.1Q295.1 39.1 295.6 38.7Q296.1 38.3 296.3 37.6Q296.6 37.0 296.6 36.2L296.6 36.2Q296.6 35.5 296.3 34.8Q296.1 34.2 295.6 33.8Q295.1 33.4 294.3 33.4L294.3 33.4Q293.6 33.4 293.1 33.8Q292.6 34.2 292.3 34.8Q292.1 35.5 292.1 36.2L292.1 36.2Q292.1 37.0 292.3 37.6Q292.6 38.3 293.1 38.7Q293.6 39.1 294.3 39.1ZM302.7 43.0L302.7 43.0Q301.9 43.0 301.2 42.8Q300.6 42.6 300.2 42.2Q299.8 41.9 299.6 41.5L299.6 41.5L300.6 40.8Q300.7 41.0 301.0 41.3Q301.2 41.6 301.6 41.8Q302.0 41.9 302.7 41.9L302.7 41.9Q303.6 41.9 304.2 41.5Q304.8 41.1 304.8 40.1L304.8 40.1L304.8 38.6L304.7 38.6Q304.6 38.8 304.3 39.1Q304.1 39.4 303.7 39.6Q303.2 39.9 302.5 39.9L302.5 39.9Q301.6 39.9 300.8 39.4Q300.1 39.0 299.7 38.2Q299.2 37.3 299.2 36.1L299.2 36.1Q299.2 35.0 299.7 34.1Q300.1 33.2 300.8 32.7Q301.6 32.3 302.5 32.3L302.5 32.3Q303.2 32.3 303.7 32.5Q304.1 32.7 304.4 33.1Q304.6 33.4 304.7 33.6L304.7 33.6L304.8 33.6L304.8 32.4L306.0 32.4L306.0 40.2Q306.0 41.2 305.6 41.8Q305.2 42.4 304.4 42.7Q303.6 43.0 302.7 43.0ZM302.7 38.8L302.7 38.8Q303.4 38.8 303.9 38.5Q304.3 38.1 304.6 37.5Q304.8 37.0 304.8 36.1L304.8 36.1Q304.8 35.3 304.6 34.7Q304.3 34.1 303.9 33.7Q303.4 33.4 302.7 33.4L302.7 33.4Q302.0 33.4 301.5 33.7Q301.0 34.1 300.7 34.7Q300.5 35.4 300.5 36.1L300.5 36.1Q300.5 36.9 300.7 37.5Q301.0 38.1 301.5 38.4Q302.0 38.8 302.7 38.8ZM309.4 40L308.2 40L308.2 32.4L309.4 32.4L309.4 40ZM308.8 31.1L308.8 31.1Q308.5 31.1 308.2 30.9Q308.0 30.6 308.0 30.3L308.0 30.3Q308.0 30.0 308.2 29.7Q308.5 29.5 308.8 29.5L308.8 29.5Q309.2 29.5 309.4 29.7Q309.7 30.0 309.7 30.3L309.7 30.3Q309.7 30.6 309.4 30.9Q309.2 31.1 308.8 31.1ZM314.8 40.2L314.8 40.2Q313.7 40.2 312.9 39.7Q312.1 39.2 311.7 38.3Q311.2 37.4 311.2 36.2Q311.2 35.1 311.6 34.2Q312.1 33.3 312.8 32.8Q313.6 32.3 314.7 32.3L314.7 32.3Q315.3 32.3 315.9 32.5Q316.5 32.7 316.9 33.1Q317.4 33.6 317.7 34.3Q318.0 35.0 318.0 36.1L318.0 36.1L318.0 36.6L312.5 36.6Q312.5 37.3 312.8 37.9L312.8 37.9Q313.1 38.5 313.6 38.8Q314.1 39.1 314.8 39.1L314.8 39.1Q315.3 39.1 315.6 38.9Q316.0 38.8 316.3 38.5Q316.5 38.3 316.7 37.9L316.7 37.9L317.9 38.2Q317.7 38.8 317.3 39.2Q316.8 39.7 316.2 39.9Q315.6 40.2 314.8 40.2ZM312.5 35.6L312.5 35.6L316.7 35.6Q316.7 35.0 316.5 34.6L316.5 34.6Q316.3 34.0 315.8 33.7Q315.4 33.4 314.7 33.4Q314.0 33.4 313.5 33.7Q313.0 34.0 312.7 34.6L312.7 34.6Q312.5 35.0 312.5 35.6ZM322.4 40.2L322.4 40.2Q321.6 40.2 321.0 39.9Q320.3 39.7 319.9 39.3Q319.6 38.8 319.4 38.1L319.4 38.1L320.6 37.9Q320.7 38.5 321.2 38.8Q321.7 39.1 322.3 39.1L322.3 39.1Q323.1 39.1 323.6 38.7Q324.1 38.4 324.1 37.9L324.1 37.9Q324.1 37.5 323.8 37.3Q323.5 37.0 323.0 36.9L323.0 36.9L321.7 36.6Q320.7 36.3 320.2 35.8Q319.6 35.3 319.6 34.5L319.6 34.5Q319.6 33.8 320.0 33.3Q320.4 32.8 321.0 32.5Q321.7 32.3 322.5 32.3L322.5 32.3Q323.3 32.3 323.8 32.5Q324.4 32.7 324.7 33.1Q325.1 33.6 325.2 34.1L325.2 34.1L324.1 34.4Q324.0 34.0 323.6 33.6Q323.2 33.3 322.5 33.3L322.5 33.3Q321.8 33.3 321.3 33.6Q320.9 33.9 320.9 34.4L320.9 34.4Q320.9 34.8 321.2 35.1Q321.5 35.4 322.2 35.5L322.2 35.5L323.3 35.8Q324.4 36.0 324.9 36.5Q325.4 37.1 325.4 37.8L325.4 37.8Q325.4 38.5 325.0 39.0Q324.6 39.6 323.9 39.9Q323.3 40.2 322.4 40.2Z "/></g></svg>